<?xml version="1.0" standalone="no"?>
<!DOCTYPE svg PUBLIC "-//W3C//DTD SVG 1.1//EN" "http://www.w3.org/Graphics/SVG/1.1/DTD/svg11.dtd" >
<svg xmlns="http://www.w3.org/2000/svg">
<metadata>Generated by IcoMoon</metadata>
<defs>
<font id="icomoon" horiz-adv-x="1024">
<font-face units-per-em="1024" ascent="960" descent="-64" />
<missing-glyph horiz-adv-x="1024" />
<glyph unicode="&#x20;" horiz-adv-x="512" d="" />
<glyph unicode="&#xe900;" glyph-name="completely-case" horiz-adv-x="825" d="M336.9 485.68l-90.874 90.874c-6.649 6.649-6.649 17.732 0 24.381s17.732 6.649 24.381 0l66.494-66.494 228.294 228.294c6.649 6.649 17.732 6.649 24.381 0s6.649-17.732 0-24.381l-252.675-252.675zM824.519-8.589v913.177c0 31.030-26.597 55.411-57.628 55.411h-711.481c-31.030 0-55.411-24.381-55.411-55.411v-913.177c0-31.030 24.381-55.411 55.411-55.411h711.481c31.030 0 57.628 24.381 57.628 55.411zM766.892 926.753c13.299 0 22.165-11.082 22.165-22.165v-913.177c0-13.299-11.082-22.165-22.165-22.165h-711.481c-13.299 0-22.165 11.082-22.165 22.165v913.177c0 13.299 11.082 22.165 22.165 22.165h711.481zM673.801 328.312c0 8.866-6.649 17.732-17.732 17.732h-489.835c-8.866 0-17.732-6.649-17.732-17.732s6.649-17.732 17.732-17.732h492.052c8.866 2.216 15.515 8.866 15.515 17.732zM673.801 221.922c0 8.866-6.649 17.732-17.732 17.732h-489.835c-8.866 0-17.732-6.649-17.732-17.732s8.866-15.515 17.732-15.515h492.052c8.866 0 15.515 6.649 15.515 15.515zM673.801 115.532c0 8.866-6.649 17.732-17.732 17.732h-489.835c-8.866 0-17.732-6.649-17.732-17.732s6.649-17.732 17.732-17.732h492.052c8.866 2.216 15.515 8.866 15.515 17.732z" />
<glyph unicode="&#xe901;" glyph-name="eye" horiz-adv-x="1597" d="M798.72 95.744c-195.243 0-352.256 158.379-352.256 352.256s158.379 352.256 352.256 352.256 352.256-158.379 352.256-352.256-157.013-352.256-352.256-352.256zM798.72 741.547c-162.475 0-293.547-131.072-293.547-293.547s131.072-293.547 293.547-293.547 293.547 131.072 293.547 293.547-131.072 293.547-293.547 293.547zM798.72-59.904c-367.275 0-628.053 238.933-749.568 380.928-62.805 73.728-62.805 177.493 0 251.221 122.88 141.995 383.659 382.293 749.568 382.293 364.544 0 625.323-238.933 749.568-382.293 64.171-73.728 64.171-177.493 0-251.221v0c-121.515-141.995-382.293-380.928-749.568-380.928zM798.72 901.291c-342.699 0-591.189-228.011-707.243-363.179-45.056-53.248-46.421-126.976 0-180.224 116.053-135.168 361.813-361.813 707.243-361.813s592.555 226.645 708.608 361.813v0c45.056 53.248 45.056 126.976 0 180.224-117.419 135.168-365.909 363.179-708.608 363.179z" />
<glyph unicode="&#xe902;" glyph-name="in-appointment" horiz-adv-x="1068" d="M974.263 857.6h-36.571v48.274c0 29.257-26.331 54.126-58.514 54.126s-58.514-24.869-58.514-54.126v-48.274h-574.903v48.274c0 29.257-26.331 54.126-58.514 54.126s-58.514-24.869-58.514-54.126v-48.274h-35.109c-51.2 0-93.623-46.811-93.623-103.863v-713.874c0-57.051 42.423-103.863 93.623-103.863h880.64c51.2 0 93.623 46.811 93.623 103.863v713.874c0 57.051-42.423 103.863-93.623 103.863zM863.086 905.874c0 5.851 7.314 11.703 16.091 11.703s16.091-5.851 16.091-11.703v-67.291c0 0 0-1.463 0-1.463 0-1.463 0-1.463 0-2.926v-64.366c0-5.851-7.314-11.703-16.091-11.703s-16.091 5.851-16.091 11.703v136.046zM171.154 905.874c0 5.851 7.314 11.703 16.091 11.703s16.091-5.851 16.091-11.703v-136.046c0-5.851-7.314-11.703-16.091-11.703s-16.091 5.851-16.091 11.703v136.046zM1025.463 575.269h-196.023c-11.703 0-20.48-10.24-20.48-21.943s8.777-21.943 20.48-21.943h197.486v-492.983c0-33.646-23.406-61.44-51.2-61.44h-882.103c-29.257 0-51.2 27.794-51.2 61.44v494.446h727.040c11.703 0 20.48 10.24 20.48 21.943s-8.777 21.943-20.48 21.943h-727.040v177.006c0 33.646 23.406 61.44 51.2 61.44h36.571v-45.349c0-29.257 26.331-54.126 58.514-54.126s58.514 24.869 58.514 54.126v45.349h576.366v-45.349c0-29.257 26.331-54.126 58.514-54.126s58.514 24.869 58.514 54.126v45.349h36.571c29.257 0 51.2-27.794 51.2-61.44v-178.469zM533.943 108.617c96.549 0 175.543 80.457 175.543 178.469s-78.994 178.469-175.543 178.469c-96.549 0-175.543-80.457-175.543-178.469s78.994-178.469 175.543-178.469zM533.943 423.131c74.606 0 134.583-61.44 134.583-136.046s-59.977-136.046-134.583-136.046c-74.606 0-134.583 61.44-134.583 136.046s59.977 136.046 134.583 136.046zM457.874 259.291h54.126v-55.589c0-11.703 8.777-20.48 20.48-20.48s20.48 8.777 20.48 20.48v55.589h54.126c11.703 0 20.48 8.777 20.48 20.48s-8.777 20.48-20.48 20.48h-54.126v55.589c0 11.703-8.777 20.48-20.48 20.48s-20.48-8.777-20.48-20.48v-54.126h-54.126c-11.703 0-20.48-8.777-20.48-20.48s10.24-21.943 20.48-21.943zM152.137 45.714h-45.349c-11.703 0-20.48-10.24-20.48-20.48 0-11.703 8.777-20.48 20.48-20.48h45.349c11.703 0 20.48 8.777 20.48 20.48 1.463 10.24-8.777 20.48-20.48 20.48zM198.949 23.771c0-11.703 8.777-20.48 20.48-20.48h766.537c11.703 0 20.48 8.777 20.48 20.48s-8.777 20.48-20.48 20.48h-766.537c-11.703 1.463-20.48-8.777-20.48-20.48z" />
<glyph unicode="&#xe903;" glyph-name="medicine" d="M133.12 276.846c-8.777 2.926-19.017-1.463-21.943-10.24-5.851-19.017-8.777-38.034-8.777-57.051 0-20.48 2.926-39.497 10.24-58.514 2.926-7.314 8.777-11.703 16.091-11.703 1.463 0 4.389 0 5.851 1.463 8.777 2.926 13.166 13.166 10.24 21.943-5.851 14.629-8.777 30.72-8.777 46.811s2.926 30.72 7.314 45.349c4.389 8.777 0 17.554-10.24 21.943zM750.446 960c-73.143 0-141.897-27.794-193.097-80.457l-191.634-191.634c-7.314-7.314-7.314-17.554 0-23.406 7.314-7.314 17.554-7.314 23.406 0l193.097 191.634c45.349 45.349 105.326 70.217 168.229 70.217 131.657 0 238.446-106.789 238.446-238.446 0-64.366-24.869-124.343-70.217-168.229 0 0 0 0 0 0-4.389-4.389-178.469-178.469-226.743-226.743l-348.16 348.16c-2.926 2.926-7.314 4.389-11.703 4.389s-8.777-1.463-11.703-4.389l-229.669-228.206c-4.389-4.389-7.314-7.314-10.24-10.24v0c-52.663-52.663-80.457-119.954-80.457-193.097 0-150.674 122.88-273.554 273.554-273.554 73.143 0 143.36 29.257 194.56 81.92l190.171 190.171c7.314 7.314 7.314 17.554 0 23.406-7.314 7.314-17.554 7.314-24.869 0l-190.171-190.171c-45.349-46.811-105.326-71.68-171.154-71.68-131.657 0-238.446 106.789-238.446 238.446 0 64.366 24.869 124.343 70.217 168.229v0c4.389 4.389 143.36 143.36 226.743 226.743l349.623-351.086c7.314-7.314 17.554-7.314 23.406 0 1.463 1.463 1.463 1.463 2.926 2.926l225.28 225.28c4.389 4.389 7.314 7.314 10.24 10.24v0c51.2 51.2 80.457 119.954 80.457 193.097 1.463 153.6-121.417 276.48-272.091 276.48zM887.954 686.446c0-8.777 7.314-17.554 17.554-17.554 8.777 0 17.554 7.314 17.554 17.554 0 55.589-27.794 108.251-74.606 140.434-7.314 5.851-19.017 2.926-23.406-4.389-5.851-7.314-2.926-19.017 4.389-23.406 35.109-24.869 58.514-67.291 58.514-112.64z" />
<glyph unicode="&#xe904;" glyph-name="microphone" horiz-adv-x="605" d="M302.545 243.2c97.745 0 176.873 79.127 176.873 176.873v363.055c0 97.745-79.127 176.873-176.873 176.873s-176.873-79.127-176.873-176.873v-363.055c0-97.745 79.127-176.873 176.873-176.873zM200.145 783.127c0 55.855 46.545 102.4 102.4 102.4s102.4-46.545 102.4-102.4v-363.055c0-55.855-46.545-102.4-102.4-102.4s-102.4 46.545-102.4 102.4v363.055zM530.618 559.709v-107.055c0-167.564-60.509-265.309-228.073-265.309s-228.073 97.745-228.073 265.309v107.055h-74.473v-107.055c0-200.145 83.782-325.818 265.309-335.127v-102.4h-139.636v-79.127h353.745v74.473h-139.636v102.4c181.527 13.964 265.309 134.982 265.309 335.127 0 0 0 74.473 0 107.055h-74.473z" />
<glyph unicode="&#xe905;" glyph-name="stethoscope" horiz-adv-x="1202" d="M1150.433 412.473c-31.347 31.347-73.143 49.11-118.073 49.11s-86.727-17.763-118.073-49.11c-56.424-56.424-63.739-143.151-22.988-206.89l-160.914-161.959c-17.763-17.763-40.751-27.167-65.829-27.167s-49.11 9.404-65.829 27.167c-17.763 17.763-27.167 40.751-27.167 65.829s9.404 49.11 27.167 65.829l276.898 276.898c0 0 1.045 1.045 1.045 1.045 109.714 114.939 112.849 298.841 4.18 412.735-56.424 59.559-131.657 92.996-212.114 94.041-68.963 1.045-134.792-21.943-188.082-63.739-37.616 29.257-81.502 50.155-128.522 58.514-19.853 4.18-38.661-9.404-42.841-29.257s9.404-38.661 29.257-42.841c43.886-8.359 84.637-29.257 117.029-61.649 7.314-7.314 15.673-10.449 26.122-10.449s18.808 4.18 26.122 10.449c40.751 42.841 98.22 66.873 159.869 65.829 60.604-1.045 118.073-26.122 159.869-70.008 82.547-87.771 79.412-228.833-8.359-316.604l-272.718-272.718c-36.571-36.571-96.131-36.571-132.702 0l-272.718 272.718c-86.727 86.727-90.906 228.833-8.359 316.604 20.898 22.988 45.976 39.706 74.188 52.245 18.808 8.359 27.167 29.257 18.808 48.065s-29.257 27.167-48.065 18.808c-37.616-15.673-71.053-39.706-98.22-68.963-109.714-115.984-105.535-303.020 9.404-417.959l272.718-272.718c32.392-32.392 75.233-49.11 118.073-49.11 6.269 0 12.539 0 18.808 1.045-1.045-6.269-1.045-12.539-1.045-18.808 0-44.931 17.763-86.727 49.11-118.073s73.143-49.11 118.073-49.11 86.727 17.763 118.073 49.11l160.914 160.914c27.167-16.718 58.514-26.122 88.816-26.122 42.841 0 85.682 16.718 118.073 49.11 65.829 65.829 65.829 171.363 0 237.192zM1099.233 227.527c-36.571-36.571-96.131-36.571-132.702 0s-36.571 96.131 0 132.702c17.763 17.763 40.751 27.167 65.829 27.167s49.11-9.404 65.829-27.167c37.616-36.571 37.616-96.131 1.045-132.702z" />
<glyph unicode="&#xe906;" glyph-name="calendar" d="M460.8 227.477l197.14 288.655c5.241 7.66 15.723 9.676 23.383 4.435l49.991-34.671c7.66-5.241 9.676-15.723 4.435-23.383l-242.696-354.369c-11.288-16.529-35.074-18.948-49.587-4.838l-145.94 144.328c-6.45 6.45-6.854 16.932-0.403 23.786l40.718 42.734c6.45 6.854 17.335 6.854 24.189 0.403l89.096-87.887c2.822-2.822 7.257-2.419 9.676 0.806zM1022.387 770.52v-722.444c0-61.682-49.991-111.672-111.672-111.672h-797.833c-61.682 0-111.672 49.991-111.672 111.672v722.444c0 61.682 49.991 111.672 111.672 111.672h79.824v-75.792c0-45.153 36.687-81.436 81.436-81.436v0c45.153 0 81.436 36.687 81.436 81.436v75.792h311.635v-75.792c0-45.153 36.687-81.436 81.436-81.436s81.436 36.687 81.436 81.436v75.792h81.033c61.279 0 111.269-49.991 111.269-111.672zM948.208 608.050h-872.416v-556.75c0-20.964 16.932-37.896 37.896-37.896h797.43c20.964 0 37.896 16.932 37.896 37.896v556.75zM314.86 808.013v110.463c0 22.98-18.545 41.121-41.121 41.121v0c-22.98 0-41.121-18.545-41.121-41.121v-110.463c0-22.98 18.545-41.121 41.121-41.121v0c22.576-0.403 41.121 18.142 41.121 41.121zM790.576 808.013v110.463c0 22.98-18.545 41.121-41.121 41.121v0c-22.98 0-41.121-18.545-41.121-41.121v-110.463c0-22.98 18.545-41.121 41.121-41.121v0c22.576-0.403 41.121 18.142 41.121 41.121z" />
<glyph unicode="&#xe907;" glyph-name="camera" horiz-adv-x="1331" d="M1218.56 765.44h-194.56c-16.384 12.288-55.296 51.2-90.112 120.832-32.768 65.536-114.688 63.488-124.928 63.488h-284.672c-18.432 2.048-81.92 8.192-122.88-61.44l-14.336-22.528c-22.528-38.912-57.344-96.256-71.68-100.352h-51.2v51.2c0 22.528-18.432 40.96-40.96 40.96h-32.768c-22.528 0-40.96-18.432-40.96-40.96v-51.2h-36.864c-61.44 0-112.64-51.2-112.64-112.64v-593.92c0-61.44 51.2-112.64 112.64-112.64h1105.92c61.44 0 112.64 51.2 112.64 112.64v593.92c0 61.44-51.2 112.64-112.64 112.64zM1269.76 58.88c0-28.672-22.528-51.2-51.2-51.2h-1105.92c-28.672 0-51.2 22.528-51.2 51.2v593.92c0 28.672 22.528 51.2 51.2 51.2h206.848c45.056 4.096 77.824 59.392 120.832 131.072l14.336 22.528c22.528 38.912 57.344 32.768 61.44 30.72h296.96c0 0 51.2 2.048 67.584-28.672 38.912-77.824 83.968-122.88 106.496-141.312 10.24-8.192 24.576-14.336 38.912-14.336h194.56c28.672 0 51.2-22.528 51.2-51.2v-593.92zM665.6 652.8c-157.696 0-286.72-129.024-286.72-286.72s129.024-286.72 286.72-286.72c157.696 0 286.72 129.024 286.72 286.72s-129.024 286.72-286.72 286.72zM665.6 140.8c-124.928 0-225.28 100.352-225.28 225.28s100.352 225.28 225.28 225.28c124.928 0 225.28-100.352 225.28-225.28s-100.352-225.28-225.28-225.28zM1017.856 611.84c0-29.408-23.84-53.248-53.248-53.248s-53.248 23.84-53.248 53.248c0 29.408 23.84 53.248 53.248 53.248s53.248-23.84 53.248-53.248z" />
<glyph unicode="&#xe908;" glyph-name="floppy-disk" horiz-adv-x="985" d="M783.754 960h-783.754v-1024h984.615v791.631l-200.862 232.369zM279.631 881.231h279.631v-129.969h70.892v129.969h74.831v-208.738h-425.354v208.738zM704.985 14.769h-425.354v366.277h429.292v-366.277zM909.785 14.769h-126.031v445.046h-582.892v-445.046h-126.031v866.462h126.031v-287.508h578.954v248.123l126.031-145.723v-681.354h3.938z" />
<glyph unicode="&#xe909;" glyph-name="magnify" d="M1016.123-56.123c-15.754-15.754-31.508-15.754-47.262 0l-267.815 259.938c-70.892-55.138-165.415-94.523-267.815-94.523-236.308 0-433.231 189.046-433.231 425.354s196.923 425.354 433.231 425.354c236.308 0 433.231-189.046 433.231-425.354 0-110.277-39.385-204.8-110.277-283.569l259.938-259.938c7.877-7.877 7.877-31.508 0-47.262zM433.231 896.985c-204.8 0-362.338-157.538-362.338-354.462s165.415-354.462 362.338-354.462c196.923 0 362.338 157.538 362.338 354.462 0 189.046-165.415 354.462-362.338 354.462z" />
<glyph unicode="&#xe90a;" glyph-name="time" horiz-adv-x="1027" d="M513.704 959.845c283.033-0.31 512.775-229.742 512.62-512-0.155-283.498-230.206-512-515.098-511.69-281.794 0.31-510.761 230.051-510.451 512.155 0.155 282.723 230.051 511.845 512.93 511.535zM513.704 876.345c-236.713 0.31-429.12-191.322-429.429-427.57-0.31-237.178 191.477-429.12 429.274-429.12 237.023 0 429.584 192.097 429.274 428.5s-192.252 428.035-429.12 428.19zM544.068 590.678c0-28.35 0.155-56.854 0-85.204 0-4.957 1.084-8.366 5.422-11.774 18.59-14.872 25.871-34.546 21.069-57.784-4.957-23.857-20.449-38.574-43.996-44.926-4.648-1.239-9.45-4.028-12.858-7.281-39.349-38.884-78.233-77.923-117.427-116.962-12.238-12.084-28.815-13.943-41.363-4.648-15.647 11.464-17.041 32.842-2.789 47.25 26.491 26.801 53.291 53.291 79.937 79.937 8.52 8.52 17.041 17.196 25.871 25.716 3.098 2.943 4.028 5.422 2.169 9.915-10.689 25.716-3.873 52.207 17.97 69.248 4.028 3.098 4.957 6.507 4.957 11.154-0.155 57.319-0.155 114.638 0 171.958 0 14.097 8.366 24.942 21.224 29.124 12.858 4.028 27.265-0.155 33.927-11.619 3.563-6.042 5.422-13.943 5.732-21.069 0.62-27.885 0.155-55.46 0.155-83.035z" />
<glyph unicode="&#xe90b;" glyph-name="pencil" d="M1024 706.695c0 32.337-10.779 59.284-32.337 80.842l-140.126 140.126c-43.116 43.116-113.179 43.116-156.295 0l-646.737-641.347c-5.389-5.389-10.779-16.168-10.779-21.558l-37.726-280.253c0-10.779 0-26.947 10.779-32.337 10.779-10.779 21.558-16.168 32.337-16.168 0 0 5.389 0 5.389 0l274.863 37.726c10.779 0 16.168 5.389 21.558 10.779l501.221 501.221c0 0 0 0 0 0s0 0 0 0l140.126 140.126c26.947 21.558 37.726 48.505 37.726 80.842zM301.811 49.179l-215.579-26.947 26.947 215.579 463.495 463.495 188.632-188.632-463.495-463.495zM932.379 679.747c0 0 0 0 0 0l-113.179-113.179-188.632 188.632 113.179 113.179c10.779 10.779 32.337 10.779 43.116 0l140.126-140.126c5.389-5.389 10.779-16.168 10.779-21.558s0-16.168-5.389-26.947z" />
<glyph unicode="&#xe90c;" glyph-name="people-invert" d="M819.2 960h-614.4c-110.933 0-204.8-93.867-204.8-204.8v-614.4c0-110.933 93.867-204.8 204.8-204.8h614.4c110.933 0 204.8 93.867 204.8 204.8v614.4c0 110.933-93.867 204.8-204.8 204.8zM836.267 98.133h-648.533v93.867c0 17.067 8.533 34.133 25.6 51.2 85.333 68.267 170.667 110.933 187.733 119.467 0 0 0 0 0 8.533v128c-17.067 8.533-25.6 25.6-25.6 42.667v136.533c0 68.267 51.2 119.467 119.467 119.467h34.133c68.267 0 119.467-51.2 119.467-119.467v-136.533c0-17.067-8.533-42.667-25.6-51.2v-128c0 0 0-8.533 0-8.533 17.067-8.533 110.933-51.2 187.733-119.467 17.067-8.533 25.6-25.6 25.6-42.667v-93.867z" />
<glyph unicode="&#xe90d;" glyph-name="people" horiz-adv-x="847" d="M434.317-49.876c-141.241 0-278.952 21.186-399.007 60.028-7.062 3.531-10.593 7.062-10.593 10.593-10.593 38.841-17.655 81.214-17.655 123.586 0 173.021 102.4 324.855 261.297 384.883-52.966 45.903-81.214 109.462-81.214 180.083 0 130.648 105.931 236.579 236.579 236.579s236.579-105.931 236.579-236.579c0-70.621-28.248-134.179-81.214-180.083 158.897-63.559 261.297-215.393 261.297-384.883 0-45.903-7.062-88.276-21.186-130.648-3.531-7.062-7.062-10.593-10.593-10.593-112.993-35.31-243.641-52.966-374.29-52.966zM56.497 38.4c112.993-35.31 243.641-52.966 377.821-52.966 123.586 0 247.172 17.655 353.103 45.903 10.593 35.31 17.655 74.152 17.655 109.462 0 169.49-105.931 314.262-268.359 363.697-7.062 3.531-10.593 7.062-10.593 14.124s3.531 14.124 7.062 17.655c56.497 38.841 91.807 102.4 91.807 169.49 0 109.462-91.807 201.269-201.269 201.269s-201.269-88.276-201.269-197.738c0-67.090 35.31-130.648 91.807-169.49 7.062-3.531 7.062-10.593 7.062-17.655s-7.062-14.124-10.593-14.124c-158.897-49.434-268.359-197.738-268.359-363.697 0-35.31 3.531-70.621 14.124-105.931zM801.545 17.214v0 0z" />
<glyph unicode="&#xe90e;" glyph-name="peoples" horiz-adv-x="1781" d="M1050.713 318.887c-4.452 0-4.452 4.452-4.452 8.904v186.991c22.261 17.809 40.070 44.522 40.070 71.235v200.348c0 97.948-75.687 173.635-173.635 173.635h-40.070c-97.948 0-173.635-80.139-173.635-173.635v-195.896c0-31.165 13.357-57.878 40.070-71.235v-186.991c0-4.452 0-4.452-4.452-8.904-26.713-13.357-155.826-80.139-271.583-178.087-22.261-17.809-35.617-44.522-35.617-71.235v-133.565h934.957v133.565c0 26.713-13.357 53.426-35.617 71.235-124.661 97.948-249.322 160.278-276.035 173.635zM1749.704 274.365c-97.948 84.591-209.252 138.017-231.513 151.374-4.452 0-4.452 4.452-4.452 4.452v155.826c17.809 13.357 31.165 35.617 31.165 62.33v164.73c0 80.139-66.783 146.922-146.922 146.922h-35.617c-80.139 0-146.922-66.783-146.922-146.922v-164.73c0-26.713 13.357-48.974 31.165-62.33v-155.826c0-4.452 0-4.452-4.452-4.452-13.357-8.904-62.33-31.165-115.757-66.783 57.878-31.165 146.922-84.591 231.513-155.826 31.165-26.713 48.974-57.878 57.878-97.948h356.174v111.304c8.904 22.261-4.452 44.522-22.261 57.878zM525.357 425.739c-4.452 0-4.452 4.452-4.452 4.452v155.826c17.809 13.357 31.165 35.617 31.165 62.33v164.73c4.452 80.139-62.33 146.922-142.47 146.922h-35.617c-80.139 0-142.47-66.783-142.47-146.922v-164.73c0-26.713 13.357-48.974 31.165-62.33v-155.826c0-4.452 0-4.452-4.452-4.452-22.261-8.904-129.113-66.783-231.513-151.374-17.809-13.357-26.713-35.617-26.713-62.33v-111.304h356.174c8.904 35.617 26.713 71.235 57.878 97.948 84.591 71.235 173.635 124.661 231.513 155.826-57.878 40.070-106.852 62.33-120.209 71.235z" />
<glyph unicode="&#xe90f;" glyph-name="phone-down" horiz-adv-x="2958" d="M2958.222 311.467v0c0 68.267-22.756 125.156-79.644 170.667-147.911 125.156-318.578 227.556-512 284.444l-79.644 22.756c-147.911 56.889-307.2 79.644-466.489 91.022l-318.578 22.756-364.089-22.756c-159.289-11.378-318.578-34.133-466.489-91.022l-79.644-22.756c-193.422-56.889-364.089-159.289-512-284.444-56.889-45.511-79.644-102.4-79.644-159.289v0c0-34.133 11.378-68.267 22.756-91.022l79.644-147.911c34.133-56.889 102.4-91.022 170.667-79.644l352.711 79.644c11.378 0 34.133 11.378 45.511 11.378 91.022 11.378 159.289 79.644 182.044 159.289 11.378 34.133 11.378 56.889 22.756 68.267 11.378 113.778 113.778 204.8 227.556 204.8h750.933c113.778 0 216.178-91.022 227.556-204.8 0-11.378 11.378-45.511 22.756-68.267 22.756-79.644 91.022-147.911 182.044-159.289 22.756 0 34.133-11.378 45.511-11.378l352.711-79.644c68.267-11.378 136.533 11.378 170.667 79.644l79.644 147.911c11.378 22.756 22.756 56.889 22.756 79.644z" />
<glyph unicode="&#xe910;" glyph-name="phone" horiz-adv-x="847" d="M35.31 910.566v0c-21.186-17.655-35.31-42.372-35.31-67.090-3.531-81.214 10.593-158.897 42.372-236.579l14.124-31.779c24.717-60.028 56.497-116.524 91.807-173.021l74.152-105.931 98.869-109.462c42.372-49.434 95.338-91.807 148.303-127.117l28.248-21.186c67.090-45.903 141.241-74.152 218.924-88.276 24.717-3.531 49.434 3.531 70.621 17.655v0c10.593 7.062 17.655 17.655 24.717 31.779l28.248 60.028c10.593 24.717 3.531 56.497-17.655 74.152l-116.524 98.869c-3.531 3.531-10.593 7.062-17.655 14.124-28.248 24.717-63.559 28.248-98.869 14.124-10.593-3.531-21.186-10.593-28.248-14.124-38.841-24.717-91.807-17.655-123.586 21.186l-102.4 123.586-91.807 112.993c-28.248 38.841-28.248 91.807 3.531 123.586 3.531 3.531 10.593 14.124 17.655 24.717 21.186 28.248 21.186 67.090 3.531 98.869 7.062 10.593 3.531 17.655 0 21.186l-67.090 137.71c-10.593 24.717-38.841 38.841-67.090 31.779l-63.559-14.124c-14.124-3.531-28.248-10.593-35.31-17.655z" />
<glyph unicode="&#xe911;" glyph-name="caret-left" horiz-adv-x="640" d="M576 0l-396.8 448 396.8 448-51.2 64-409.6-448-51.2-64 460.8-512z" />
<glyph unicode="&#xe912;" glyph-name="caret-right" horiz-adv-x="640" d="M64 0l396.8 448-396.8 448 51.2 64 409.6-448 51.2-64-460.8-512z" />
<glyph unicode="&#xe913;" glyph-name="caret-up" horiz-adv-x="1638" d="M1536 38.4l-716.8 634.88-716.8-634.88-102.4 81.92 716.8 655.36 102.4 81.92 819.2-737.28z" />
<glyph unicode="&#xe914;" glyph-name="caret-down" horiz-adv-x="1638" d="M1536 857.6l-716.8-634.88-716.8 634.88-102.4-81.92 716.8-655.36 102.4-81.92 819.2 737.28z" />
<glyph unicode="&#xe915;" glyph-name="cross" d="M1024 900.267l-68.267 59.733-443.733-443.733-443.733 443.733-68.267-59.733 443.733-452.267-443.733-443.733 68.267-68.267 443.733 452.267 443.733-452.267 68.267 68.267-443.733 443.733z" />
<glyph unicode="&#xe916;" glyph-name="trash" horiz-adv-x="819" d="M747.52 632.32v-552.96c0-66.56-56.32-122.88-122.88-122.88h-430.080c-66.56 0-122.88 56.32-122.88 122.88v552.96c-35.84 0-61.44 25.6-61.44 61.44v61.44c0 35.84 25.6 61.44 61.44 61.44h184.32v61.44c0 35.84 25.6 61.44 61.44 61.44h184.32c35.84 0 61.44-25.6 61.44-61.44v-61.44h184.32c35.84 0 61.44-25.6 61.44-61.44v-61.44c0-35.84-25.6-61.44-61.44-61.44zM133.12 632.32v-552.96c0-35.84 25.6-61.44 61.44-61.44h430.080c35.84 0 61.44 25.6 61.44 61.44v552.96c-35.84 0-512 0-552.96 0zM317.44 816.64c0 0 153.6 0 184.32 0v30.72c0 15.36-15.36 30.72-30.72 30.72h-122.88c-15.36 0-30.72-15.36-30.72-30.72v-30.72zM716.8 755.2h-614.4c-15.36 0-30.72-15.36-30.72-30.72s15.36-30.72 30.72-30.72h614.4c15.36 0 30.72 15.36 30.72 30.72s-15.36 30.72-30.72 30.72zM256 509.44c15.36 0 30.72-15.36 30.72-30.72v-368.64c0-15.36-15.36-30.72-30.72-30.72s-30.72 15.36-30.72 30.72v368.64c0 15.36 15.36 30.72 30.72 30.72zM409.6 509.44c15.36 0 30.72-15.36 30.72-30.72v-368.64c0-15.36-15.36-30.72-30.72-30.72s-30.72 15.36-30.72 30.72v368.64c0 15.36 15.36 30.72 30.72 30.72zM563.2 509.44c15.36 0 30.72-15.36 30.72-30.72v-368.64c0-15.36-15.36-30.72-30.72-30.72s-30.72 15.36-30.72 30.72v368.64c0 15.36 15.36 30.72 30.72 30.72z" />
<glyph unicode="&#xe917;" glyph-name="calendar-02" d="M890.435 256.557l-97.948-138.017-66.783 57.878c-8.904 4.452-17.809 4.452-22.261-4.452s-4.452-17.809 4.452-22.261l84.591-66.783c4.452-4.452 8.904-4.452 8.904-4.452s0 0 4.452 0 8.904 4.452 13.357 8.904l106.852 155.826c4.452 8.904 4.452 17.809-4.452 22.261-17.809 4.452-26.713 0-31.165-8.904zM903.791 363.409v512c0 8.904-8.904 17.809-17.809 17.809h-84.591v48.974c0 8.904-8.904 17.809-17.809 17.809h-120.209c-8.904 0-17.809-8.904-17.809-17.809v-53.426h-387.339v53.426c0 8.904-4.452 17.809-13.357 17.809h-124.661c-8.904 0-17.809-8.904-17.809-17.809v-53.426h-84.591c-8.904 0-17.809-4.452-17.809-13.357v-885.983c0-8.904 8.904-17.809 17.809-17.809h663.374c35.617-22.261 75.687-35.617 120.209-35.617 124.661 0 227.061 102.4 227.061 227.061-4.452 84.591-53.426 160.278-124.661 200.348zM676.73 924.383h84.591v-102.4h-84.591v102.4zM138.017 924.383h84.591v-102.4h-84.591v102.4zM35.617 857.6h71.235v-53.426c0-8.904 8.904-17.809 17.809-17.809h120.209c8.904 0 17.809 8.904 17.809 17.809v53.426h382.887v-53.426c0-8.904 8.904-17.809 17.809-17.809h120.209c8.904 0 17.809 8.904 17.809 17.809v53.426h71.235v-138.017h-837.009v138.017zM35.617 7.235v676.73h832.557v-307.2c-4.452 0-8.904 0-8.904 4.452-4.452 0-4.452 0-8.904 4.452-4.452 0-4.452 0-8.904 0s-8.904 0-13.357 0c-4.452 0-4.452 0-8.904 0-8.904 0-13.357 0-22.261 0-4.452 0-13.357 0-17.809 0v209.252h-658.922v-503.096h463.026c0 0 0-4.452 0-4.452 0-4.452 4.452-8.904 4.452-13.357s0-4.452 4.452-8.904c0-4.452 4.452-8.904 4.452-13.357 0 0 0-4.452 4.452-4.452 4.452-4.452 4.452-8.904 8.904-13.357 0 0 0-4.452 4.452-4.452 4.452-4.452 4.452-8.904 8.904-13.357 0 0 4.452-4.452 4.452-4.452 4.452-4.452 4.452-4.452 8.904-8.904h-601.043zM623.304 439.096v120.209h120.209v-120.209h-120.209zM747.965 403.478v-22.261c0 0 0 0 0 0-17.809-4.452-31.165-8.904-44.522-17.809 0 0-4.452 0-4.452-4.452-4.452 0-4.452-4.452-8.904-4.452s-4.452-4.452-8.904-4.452c-4.452 0-4.452-4.452-8.904-4.452s-4.452-4.452-8.904-4.452c-4.452 0-4.452-4.452-8.904-4.452-4.452-4.452-4.452-4.452-8.904-8.904 0 0-4.452-4.452-4.452-4.452-4.452-4.452-4.452-4.452-8.904-8.904 0 0-4.452-4.452-4.452-4.452v97.948h120.209zM574.33 140.8c0 0 0 0 0 0 0-4.452 0-8.904 0-13.357v0c0 0 0-4.452 0-4.452h-106.852v124.661h120.209c0 0 0 0 0 0-4.452-4.452-4.452-13.357-8.904-17.809 0 0 0-4.452 0-4.452 0-4.452-4.452-8.904-4.452-13.357s0-8.904 0-13.357c0-4.452 0-4.452 0-8.904 0-8.904 0-13.357 0-22.261 0-13.357 0-17.809 0-26.713zM467.478 283.27v120.209h120.209v-120.209h-120.209zM467.478 439.096v120.209h120.209v-120.209h-120.209zM311.652 283.27v120.209h120.209v-120.209h-120.209zM431.861 247.652v-120.209h-120.209v120.209h120.209zM311.652 439.096v120.209h120.209v-120.209h-120.209zM155.826 283.27v120.209h120.209v-120.209h-120.209zM276.035 247.652v-120.209h-120.209v120.209h120.209zM155.826 439.096v120.209h120.209v-120.209h-120.209zM796.939-28.383c-40.070 0-75.687 13.357-106.852 31.165-4.452 4.452-13.357 8.904-17.809 13.357 0 0-4.452 4.452-4.452 4.452 0 4.452-4.452 4.452-8.904 8.904 0 0-4.452 4.452-4.452 4.452-4.452 4.452-4.452 4.452-8.904 8.904 0 0-4.452 4.452-4.452 4.452-4.452 4.452-8.904 13.357-8.904 17.809 0 0 0 4.452 0 4.452-4.452 4.452-4.452 8.904-8.904 13.357 0 4.452 0 4.452-4.452 8.904 0 4.452-4.452 8.904-4.452 13.357 0 0 0 0 0 4.452 0 8.904-4.452 13.357-4.452 22.261 0 0 0 0 0 0 0 8.904 0 13.357 0 22.261 0 4.452 0 13.357 0 17.809 0 0 0 0 0 0 0 4.452 0 13.357 4.452 17.809 0 0 0 0 0 0 0 4.452 4.452 13.357 4.452 17.809 0 0 0 0 0 0 0 4.452 4.452 8.904 4.452 17.809 0 4.452 4.452 8.904 8.904 13.357v4.452c0 0 0 4.452 4.452 4.452 4.452 4.452 4.452 8.904 8.904 13.357 0 0 0 4.452 4.452 4.452 4.452 4.452 4.452 8.904 8.904 13.357 0 0 4.452 4.452 4.452 4.452 4.452 4.452 8.904 8.904 8.904 8.904s4.452 4.452 4.452 4.452 8.904 8.904 13.357 8.904c0 0 0 0 0 0 22.261 17.809 48.974 26.713 75.687 31.165v0c8.904 0 22.261 4.452 31.165 4.452s13.357 0 22.261 0c0 0 0 0 4.452 0s13.357 0 17.809-4.452c0 0 0 0 0 0 4.452 0 13.357-4.452 17.809-4.452 0 0 0 0 0 0 4.452 0 13.357-4.452 17.809-8.904 66.783-31.165 111.304-97.948 111.304-173.635 0-93.496-84.591-178.087-191.443-178.087z" />
<glyph unicode="&#xe918;" glyph-name="checklist" horiz-adv-x="934" d="M801.185 253.63c0-4.741-4.741-4.741-4.741-9.481-28.444-42.667-61.63-85.333-90.074-128-18.963 14.222-37.926 33.185-56.889 47.407-4.741 4.741-14.222 9.481-18.963 9.481s-9.481-4.741-14.222-9.481c-9.481-18.963 18.963-33.185 33.185-42.667 18.963-14.222 33.185-28.444 52.148-42.667 4.741-4.741 9.481-9.481 14.222-4.741 4.741 0 9.481 4.741 14.222 9.481 33.185 47.407 66.37 94.815 99.556 142.222 4.741 4.741 4.741 9.481 4.741 14.222s0 9.481-4.741 14.222-9.481 4.741-14.222 4.741c-4.741 0-9.481-4.741-14.222-4.741zM730.074 381.63v459.852c0 9.481-9.481 18.963-18.963 18.963h-137.481v33.185c0 9.481-9.481 18.963-18.963 18.963h-94.815v28.444c0 9.481-9.481 18.963-18.963 18.963h-151.704c-9.481 0-18.963-9.481-18.963-18.963v-33.185h-99.556c-9.481 0-18.963-9.481-18.963-18.963v-33.185h-132.741c-9.481 0-18.963-4.741-18.963-14.222v-853.333c0-9.481 9.481-18.963 18.963-18.963h578.37c33.185-23.704 75.852-33.185 118.519-33.185 123.259 0 222.815 99.556 222.815 222.815-4.741 118.519-94.815 213.333-208.593 222.815zM308.148 926.815h118.519v-66.37h-118.519v66.37zM184.889 874.667h85.333v-33.185c0-9.481 9.481-18.963 18.963-18.963h151.704c9.481 0 18.963 9.481 18.963 18.963v33.185h85.333v-66.37h-360.296v66.37zM37.926 7.111c0 0 0 4.741 0 4.741 0 9.481 0 14.222 0 23.704 0 61.63 0 123.259 0 184.889s0 123.259 0 184.889c0 61.63 0 123.259 0 184.889s0 123.259 0 184.889c0 4.741 0 42.667 0 42.667 37.926 0 80.593 0 118.519 0 9.481-14.222-4.741-37.926 9.481-47.407 0 0 9.481 0 14.222 0 123.259 0 246.519 0 374.519 0 4.741 0 14.222 0 18.963 4.741 14.222 9.481 0 33.185 9.481 47.407 37.926 0 80.593 0 118.519 0 0-146.963 0-293.926 0-440.889-80.593-9.481-156.444-66.37-184.889-142.222s-14.222-170.667 42.667-232.296c-61.63 0-123.259 0-184.889 0s-123.259 0-184.889 0c-33.185 0-61.63 0-94.815 0-14.222 0-33.185 0-47.407 0-9.481 0-9.481 0-9.481 0zM715.852-26.074c-47.407 0-94.815 18.963-128 52.148-52.148 47.407-66.37 123.259-47.407 189.63 4.741 18.963 14.222 37.926 28.444 56.889 47.407 61.63 137.481 90.074 208.593 66.37 75.852-23.704 128-99.556 128-180.148s-56.889-151.704-132.741-175.407c-18.963-9.481-37.926-9.481-56.889-9.481zM118.519 651.852h222.815c9.481 0 18.963 9.481 18.963 18.963s-9.481 18.963-18.963 18.963h-222.815c-9.481 0-18.963-9.481-18.963-18.963 4.741-9.481 9.481-18.963 18.963-18.963zM341.333 177.778h-222.815c-9.481 0-18.963-9.481-18.963-18.963s9.481-18.963 18.963-18.963h222.815c9.481 0 18.963 9.481 18.963 18.963-4.741 9.481-9.481 18.963-18.963 18.963zM118.519 552.296h493.037c9.481 0 18.963 9.481 18.963 18.963s-9.481 18.963-18.963 18.963h-493.037c-9.481 0-18.963-9.481-18.963-18.963 4.741-14.222 9.481-18.963 18.963-18.963zM118.519 348.444h407.704c9.481 0 18.963 9.481 18.963 18.963s-9.481 18.963-18.963 18.963h-407.704c-9.481 0-18.963-9.481-18.963-18.963 4.741-14.222 9.481-18.963 18.963-18.963zM440.889 277.333h-322.37c-9.481 0-18.963-9.481-18.963-18.963s9.481-18.963 18.963-18.963h322.37c9.481 0 18.963 9.481 18.963 18.963 0 14.222-9.481 18.963-18.963 18.963zM118.519 448h237.037c9.481 0 18.963 9.481 18.963 18.963s-9.481 18.963-18.963 18.963h-237.037c-9.481 0-18.963-9.481-18.963-18.963 4.741-9.481 9.481-18.963 18.963-18.963zM611.556 481.185h-118.519c-9.481 0-18.963-9.481-18.963-18.963s9.481-18.963 18.963-18.963h118.519c9.481 0 18.963 9.481 18.963 18.963 0 14.222-9.481 18.963-18.963 18.963zM412.444 476.444c0 0 0 0 0 0 9.481 4.741 18.963 4.741 23.704 0s4.741-18.963 0-23.704c-14.222-14.222-37.926 9.481-23.704 23.704z" />
<glyph unicode="&#xe919;" glyph-name="medicines" d="M799.695 384.61c-121.905 0-224.305-102.4-224.305-224.305s102.4-224.305 224.305-224.305c121.905 0 224.305 102.4 224.305 224.305s-102.4 224.305-224.305 224.305zM799.695-20.114c-97.524 0-180.419 82.895-180.419 180.419s82.895 180.419 180.419 180.419 180.419-82.895 180.419-180.419c0-97.524-82.895-180.419-180.419-180.419zM867.962 272.457c-9.752 4.876-24.381 4.876-29.257-4.876l-112.152-185.295c-4.876-9.752-4.876-24.381 4.876-29.257 4.876 0 9.752-4.876 9.752-4.876 4.876 0 14.629 4.876 19.505 9.752l112.152 185.295c9.752 9.752 4.876 24.381-4.876 29.257zM175.543 92.038v0c-19.505 14.629-34.133 29.257-39.010 53.638-4.876 19.505 0 43.886 9.752 58.514 4.876 9.752 4.876 24.381-4.876 29.257s-24.381 4.876-29.257-4.876c-19.505-29.257-24.381-63.39-14.629-97.524s29.257-58.514 53.638-78.019h4.876c4.876 0 9.752-4.876 9.752-4.876 4.876 0 14.629 4.876 19.505 9.752 4.876 14.629 0 24.381-9.752 34.133zM648.533 847.848v0c-14.629 9.752-29.257 4.876-34.133-4.876s-4.876-24.381 4.876-29.257h4.876c39.010-24.381 48.762-73.143 24.381-112.152-4.876-9.752-4.876-24.381 4.876-29.257 4.876 0 9.752-4.876 9.752-4.876 4.876 0 14.629 4.876 19.505 9.752 43.886 53.638 24.381 131.657-34.133 170.667zM765.562 623.543c29.257 48.762 39.010 107.276 29.257 165.79-14.629 58.514-48.762 102.4-97.524 136.533h-4.876c-34.133 24.381-73.143 34.133-112.152 34.133-73.143 0-141.41-39.010-185.295-102.4l-360.838-580.267c-29.257-48.762-39.010-107.276-29.257-165.79 14.629-58.514 48.762-102.4 97.524-136.533h4.876c34.133-19.505 73.143-34.133 117.029-34.133 73.143 0 141.41 39.010 185.295 102.4l180.419 292.571 175.543 287.695zM365.714 67.657c-34.133-48.762-87.771-82.895-146.286-82.895-34.133 0-63.39 9.752-92.648 24.381h-4.876c-39.010 24.381-68.267 63.39-78.019 107.276s-4.876 92.648 19.505 131.657l170.667 273.067 297.448-185.295-165.79-268.19zM263.314 560.152l170.667 273.067c34.133 48.762 87.771 82.895 146.286 82.895 34.133 0 63.39-9.752 92.648-24.381h4.876c39.010-24.381 68.267-63.39 78.019-107.276s4.876-92.648-19.505-131.657l-175.543-277.943-297.448 185.295z" />
<glyph unicode="&#xe91a;" glyph-name="pin-map" horiz-adv-x="780" d="M390.095 960c-214.552 0-390.095-185.295-390.095-409.6 0-24.381 0-53.638 4.876-78.019 0 0 0-4.876 4.876-14.629 4.876-29.257 14.629-53.638 24.381-82.895 43.886-102.4 136.533-263.314 336.457-433.981 4.876-4.876 14.629-4.876 19.505-4.876s14.629 0 19.505 4.876c204.8 170.667 297.448 331.581 336.457 433.981 9.752 24.381 19.505 53.638 24.381 82.895 0 9.752 4.876 14.629 4.876 14.629 0 24.381 4.876 53.638 4.876 78.019 0 224.305-175.543 409.6-390.095 409.6zM716.8 482.133c0 0 0 0 0 0s0-4.876 0-9.752c0 0 0 0 0 0-4.876-24.381-14.629-48.762-24.381-68.267 0 0 0 0 0 0-39.010-97.524-121.905-238.933-302.324-399.848-180.419 156.038-263.314 302.324-302.324 399.848 0 0 0 0 0 0-9.752 19.505-19.505 43.886-24.381 68.267 0 0 0 0 0 0 0 4.876 0 9.752 0 9.752s0 0 0 0c-4.876 24.381-9.752 43.886-9.752 68.267 0 195.048 151.162 351.086 336.457 351.086s336.457-156.038 336.457-351.086c0-24.381-4.876-43.886-9.752-68.267zM390.095 803.962c-136.533 0-248.686-117.029-248.686-258.438s112.152-258.438 248.686-258.438c136.533 0 248.686 117.029 248.686 258.438s-112.152 258.438-248.686 258.438zM390.095 340.724c-107.276 0-195.048 92.648-195.048 204.8s87.771 199.924 195.048 199.924c107.276 0 190.171-92.648 190.171-204.8 0-107.276-82.895-199.924-190.171-199.924z" />
<glyph unicode="&#xe91b;" glyph-name="stethoscope-02" horiz-adv-x="903" d="M800.692 350.428v266.562c0 60.354-49.289 109.642-109.642 109.642h-15.088c-60.354 0-109.642-49.289-109.642-109.642v-14.083h-1.006v-491.882c0-74.436-60.354-134.79-134.79-134.79h-26.153c-74.436 0-134.79 60.354-134.79 134.79v152.896h35.206c110.648 0 201.179 90.53 201.179 201.179v157.925h1.006v210.232c0 49.289-30.177 92.542-72.424 110.648l2.012 5.029c-16.094 7.041-32.189 10.059-49.289 10.059v-50.295c10.059 0 20.118-2.012 30.177-6.035l2.012 5.029c28.165-12.071 48.283-40.236 48.283-73.43v-208.22h-1.006v-159.937c0-88.519-72.424-160.943-160.943-160.943h-104.613c-88.519 0-160.943 72.424-160.943 160.943v368.157c0 32.189 19.112 60.354 47.277 73.43l2.012-4.024c10.059 4.024 20.118 6.035 31.183 6.035v50.295c-18.106 0-35.206-4.024-51.301-11.065l2.012-5.029c-42.248-18.106-71.418-60.354-71.418-109.642v-369.163c0-110.648 90.53-201.179 201.179-201.179h28.165v-151.89c0-96.566 78.46-175.026 175.026-175.026h26.153c96.566 0 175.026 78.46 175.026 175.026v221.297h1.006v283.662c0 38.224 31.183 69.407 69.407 69.407h15.088c38.224 0 69.407-31.183 69.407-69.407v-267.568c-55.324-10.059-98.578-59.348-98.578-118.695 0-66.389 54.318-120.707 120.707-120.707s120.707 54.318 120.707 120.707c0 60.354-44.259 110.648-102.601 119.701z" />
<glyph unicode="&#xe91c;" glyph-name="list" horiz-adv-x="768" d="M732.16 878.080h-128v51.2c0 20.48-15.36 35.84-35.84 35.84s-35.84-15.36-35.84-35.84v-51.2h-112.64v51.2c0 15.36-15.36 30.72-35.84 30.72s-35.84-15.36-35.84-35.84v-51.2h-117.76v51.2c0 20.48-15.36 35.84-35.84 35.84s-30.72-15.36-30.72-35.84v-51.2h-128c-20.48 5.12-35.84-10.24-35.84-30.72v-875.52c0-15.36 15.36-30.72 35.84-30.72h701.44c20.48 0 35.84 15.36 35.84 35.84v870.4c-5.12 20.48-20.48 35.84-40.96 35.84zM701.44 2.56h-634.88v808.96h92.16v-40.96c0-20.48 15.36-35.84 35.84-35.84s35.84 15.36 35.84 35.84v40.96h122.88v-40.96c0-20.48 15.36-35.84 35.84-35.84s35.84 15.36 35.84 35.84v40.96h122.88v-40.96c0-20.48 15.36-35.84 35.84-35.84s35.84 15.36 35.84 35.84v40.96h92.16v-808.96zM184.32 586.24c-20.48 0-35.84-15.36-35.84-35.84s15.36-35.84 35.84-35.84h399.36c20.48 0 35.84 15.36 35.84 35.84s-15.36 35.84-35.84 35.84h-399.36zM583.68 396.8h-399.36c-20.48 0-35.84-15.36-35.84-35.84s15.36-35.84 35.84-35.84h399.36c20.48 0 35.84 15.36 35.84 35.84s-15.36 35.84-35.84 35.84zM583.68 207.36h-399.36c-20.48 0-35.84-15.36-35.84-35.84s15.36-35.84 35.84-35.84h399.36c20.48 0 35.84 15.36 35.84 35.84s-15.36 35.84-35.84 35.84z" />
<glyph unicode="&#xe91d;" glyph-name="recommendation" d="M542.609 960c4.179-2.298 8.566-1.254 12.954-1.671 103.424-8.984 195.983-45.757 276.841-110.737 75.844-61.010 130.168-137.481 162.553-229.413 21.103-59.756 30.923-121.601 28.624-184.909-4.179-122.019-45.757-230.040-126.198-322.39-65.815-75.426-147.092-127.452-243.412-155.24-60.801-17.551-122.855-23.192-185.745-17.969-71.039 6.059-137.689 26.117-200.371 59.756-2.716 1.463-4.388 1.045-6.686-0.418-42.832-29.669-90.052-47.429-141.659-53.697-25.699-3.134-51.607-3.343-77.307 0.836-16.506 2.507-30.087 15.67-33.012 32.176-2.925 16.924 4.388 34.266 19.222 41.787 42.623 21.312 68.949 57.249 89.634 98.409 1.463 2.925-0.209 4.179-1.671 6.059-22.774 27.58-42.414 57.040-58.92 88.798-24.863 47.847-41.787 98.409-50.772 151.479-2.925 18.178-5.223 36.355-6.059 54.741 0 0.836 0.209 1.671-0.836 2.089 0 20.058 0 40.116 0 60.174 1.254 0.418 0.836 1.671 1.045 2.507 1.88 27.162 5.641 54.115 11.909 80.65 23.401 100.081 72.292 186.163 147.092 256.992 86.5 81.485 189.297 127.66 307.973 138.316 5.432 0.418 11.283 0 16.715 1.671 19.222 0 38.653 0 58.084 0zM55.786-15.527c21.729-2.716 43.459-2.089 64.979 1.254 47.429 7.104 90.261 25.072 128.496 54.324 7.94 6.268 16.297 6.477 25.281 1.463 8.566-4.806 17.133-9.82 25.908-13.999 92.35-45.757 189.506-60.592 291.049-43.25 102.17 17.342 190.133 63.517 260.544 139.152 108.647 116.587 149.39 254.903 121.601 411.606-21.103 119.094-82.53 215.205-178.432 288.542-69.576 53.279-148.763 83.784-236.308 92.559-52.025 5.223-103.424 2.089-154.195-9.82-99.663-23.61-183.238-74.382-249.889-152.315-75.426-88.171-112.199-191.177-113.453-306.928-0.209-29.878 2.925-59.547 8.566-89.007 16.297-83.157 52.234-156.703 108.020-220.637 6.477-7.522 7.94-15.461 3.97-24.446-6.268-14.417-13.372-28.415-21.521-41.787-21.103-34.892-47.429-64.979-83.784-85.037-0.209-0.418-1.045-0.627-0.836-1.671zM483.062 349.068c55.995 55.995 111.99 111.99 167.985 167.985 1.045 1.045 2.089 2.089 3.134 3.343 9.82 11.7 4.179 29.669-10.656 33.639-9.402 2.507-16.506-1.671-22.774-7.94-50.145-50.145-100.499-100.499-150.435-150.644-2.925-2.925-4.388-2.925-7.313 0-20.267 20.476-40.534 40.743-60.801 61.010-2.507 2.507-5.223 4.806-8.357 6.059-8.566 3.552-18.595 1.045-24.446-6.268-5.641-7.104-6.059-17.133-0.836-24.655 1.254-1.671 2.716-3.343 4.179-4.806 25.699-25.699 51.607-51.398 77.307-77.307 4.597-4.597 9.82-7.94 16.715-7.94 6.477-0.418 11.7 2.925 16.297 7.522z" />
<glyph unicode="&#xe91e;" glyph-name="admin-talk" horiz-adv-x="1103" d="M854.646 960c-137.846 0-248.123-94.523-248.123-212.677 0-35.446 11.815-70.892 31.508-102.4l-39.385-86.646c-3.938-7.877-3.938-15.754 3.938-19.692 3.938-3.938 7.877-7.877 15.754-7.877 0 0 3.938 0 3.938 0l106.338 31.508c39.385-19.692 82.708-31.508 129.969-31.508 137.846 0 248.123 94.523 248.123 212.677-3.938 122.092-114.215 216.615-252.062 216.615zM779.815 707.938c-19.692 0-39.385 15.754-39.385 39.385 0 19.692 15.754 39.385 39.385 39.385 19.692 0 39.385-15.754 39.385-39.385-3.938-19.692-19.692-39.385-39.385-39.385zM917.662 707.938c-19.692 0-39.385 15.754-39.385 39.385 0 19.692 15.754 39.385 39.385 39.385 19.692 0 39.385-15.754 39.385-39.385 0-19.692-19.692-39.385-39.385-39.385zM606.523 341.662l-114.215 35.446c-3.938 7.877-7.877 15.754-15.754 19.692 7.877 11.815 15.754 19.692 23.631 31.508 15.754 19.692 27.569 43.323 35.446 63.015 3.938 7.877 7.877 19.692 11.815 27.569 11.815 7.877 15.754 23.631 15.754 39.385v35.446c0 11.815-3.938 19.692-7.877 27.569v51.2c0 86.646-70.892 161.477-157.538 161.477h-55.138c-86.646 0-157.538-70.892-157.538-161.477v-51.2c-7.877-7.877-11.815-19.692-11.815-27.569v-35.446c0-15.754 7.877-27.569 15.754-39.385 3.938-7.877 7.877-19.692 11.815-27.569 7.877-19.692 19.692-43.323 35.446-63.015 7.877-7.877 15.754-19.692 23.631-31.508-7.877-7.877-15.754-11.815-15.754-19.692l-114.215-35.446c-78.769-23.631-126.031-370.215-126.031-370.215s0-3.938 0-3.938c-3.938-19.692 7.877-31.508 27.569-31.508h673.477c15.754 0 31.508 11.815 31.508 31.508-3.938 11.815-51.2 350.523-129.969 374.154zM334.769 251.077c0-3.938-3.938-7.877-7.877-7.877 0 0 0 0-3.938 0s-7.877 0-7.877 3.938l-27.569 39.385c0 0-3.938 3.938-3.938 7.877v63.015c0 3.938 0 7.877 3.938 7.877s7.877 0 11.815 0c7.877-3.938 15.754-7.877 23.631-7.877 3.938 0 7.877-3.938 7.877-11.815v-23.631c0 0 3.938 0 3.938-3.938s3.938-3.938 3.938-7.877l-3.938-59.077zM445.046 290.462c0-3.938 0-3.938-3.938-7.877l-27.569-39.385c0-3.938-3.938-3.938-7.877-3.938 0 0 0 0-3.938 0s-7.877 3.938-7.877 7.877v59.077c0 3.938 0 3.938 3.938 7.877 0 0 3.938 3.938 3.938 3.938v23.631c0 3.938 3.938 7.877 7.877 11.815 7.877 0 15.754 3.938 23.631 7.877 3.938 0 7.877 0 11.815 0s3.938-3.938 3.938-7.877v-63.015zM393.846 404.677h-55.138c-11.815 0-35.446 15.754-59.077 51.2-19.692 27.569-31.508 59.077-35.446 86.646v3.938l-11.815 7.877c-3.938 0-3.938 3.938-3.938 7.877v15.754c0 3.938 3.938 11.815 11.815 11.815h3.938v19.692c0 3.938 3.938 7.877 3.938 7.877 15.754 7.877 43.323 19.692 70.892 19.692 23.631 0 43.323-7.877 55.138-23.631 19.692-19.692 39.385-27.569 63.015-27.569 11.815 0 27.569 3.938 39.385 7.877 3.938 0 7.877 0 7.877 0s3.938-3.938 3.938-3.938h3.938c3.938 0 11.815-3.938 11.815-11.815v-15.754c0-3.938 0-7.877-3.938-7.877l-11.815-7.877v-3.938c-3.938-23.631-15.754-55.138-35.446-86.646-23.631-35.446-47.262-51.2-59.077-51.2z" />
<glyph unicode="&#xe91f;" glyph-name="pause" horiz-adv-x="436" d="M436.026-64h-92.49v1024h92.49v-1024zM92.49 960h-92.49v-1024h92.49v1024z" />
<glyph unicode="&#xe920;" glyph-name="play" horiz-adv-x="775" d="M0 960v-1024l774.919 516.613z" />
</font>
</defs>
</svg>
